<svg width="20" height="19" viewBox="0 0 20 19" fill="none" xmlns="http://www.w3.org/2000/svg">
<path d="M18.75 8.00291H3.92501L8.46252 2.55291C8.67469 2.29764 8.77677 1.96854 8.74629 1.638C8.71582 1.30747 8.55529 1.00258 8.30002 0.790408C8.04474 0.578235 7.71564 0.476157 7.38511 0.506632C7.05458 0.537107 6.74969 0.697637 6.53751 0.952908L0.287515 8.45291C0.245466 8.51256 0.207864 8.57523 0.175015 8.64041C0.175015 8.70291 0.175015 8.74041 0.0875155 8.80291C0.0308573 8.94623 0.00119166 9.0988 1.52588e-05 9.25291C0.00119166 9.40702 0.0308573 9.55958 0.0875155 9.70291C0.0875155 9.76541 0.0875151 9.80291 0.175015 9.86541C0.207864 9.93058 0.245466 9.99325 0.287515 10.0529L6.53751 17.5529C6.65504 17.694 6.80222 17.8075 6.96857 17.8853C7.13493 17.963 7.31638 18.0032 7.50002 18.0029C7.79208 18.0035 8.07513 17.9018 8.30002 17.7154C8.42659 17.6105 8.53122 17.4816 8.60791 17.3362C8.6846 17.1907 8.73184 17.0316 8.74694 16.8679C8.76203 16.7042 8.74468 16.5391 8.69587 16.3821C8.64707 16.2251 8.56777 16.0792 8.46252 15.9529L3.92501 10.5029H18.75C19.0815 10.5029 19.3995 10.3712 19.6339 10.1368C19.8683 9.90237 20 9.58443 20 9.25291C20 8.92139 19.8683 8.60345 19.6339 8.36902C19.3995 8.1346 19.0815 8.00291 18.75 8.00291Z" fill="#F53838"/>
</svg>
